<?xml version="1.0" encoding="utf-8"?>
<!-- Generator: Adobe Illustrator 24.2.3, SVG Export Plug-In . SVG Version: 6.00 Build 0)  -->
<svg version="1.1" id="Layer_1" xmlns="http://www.w3.org/2000/svg" xmlns:xlink="http://www.w3.org/1999/xlink" x="0px" y="0px"
	 viewBox="0 0 770.1 526.2" style="enable-background:new 0 0 770.1 526.2;" xml:space="preserve">
<style type="text/css">
	.st0{opacity:0.85;enable-background:new    ;}
	.st1{enable-background:new    ;}
	.st2{clip-path:url(#SVGID_2_);}
	.st3{fill:#FFFFFF;}
	.st4{fill:url(#SVGID_3_);}
	.st5{opacity:0.85;fill:url(#SVGID_4_);enable-background:new    ;}
	.st6{opacity:0.7;fill:url(#SVGID_5_);enable-background:new    ;}
	.st7{opacity:0.6;fill:url(#SVGID_6_);enable-background:new    ;}
	.st8{opacity:0.8;fill:url(#SVGID_7_);enable-background:new    ;}
	.st9{opacity:0.65;fill:url(#SVGID_8_);enable-background:new    ;}
	.st10{fill:url(#SVGID_9_);}
	.st11{opacity:0.95;}
	.st12{opacity:0.69;}
	.st13{fill:none;stroke:#D6361F;stroke-width:7.6535;stroke-linecap:round;stroke-miterlimit:3.8268;}
	.st14{fill:none;stroke:#D6361F;stroke-width:7.6535;stroke-linecap:round;stroke-linejoin:round;stroke-miterlimit:3.8268;}
	.st15{fill:url(#SVGID_10_);}
</style>
<desc>
	An orange star at the left focus of a dashed elliptical orbit ejects radial jets and clouds of material; a blue companion sits at the rightmost point of the orbit.
	</desc>
<rect y="0" width="770.1" height="526.2"/>
<g class="st0">
	<g>
		<g class="st1">
			<defs>
				<polygon id="SVGID_1_" class="st1" points="146.7,400.4 266.7,88.3 704.7,45.8 584.7,357.9 				"/>
			</defs>
			<clipPath id="SVGID_2_">
				<use xlink:href="#SVGID_1_"  style="overflow:visible;"/>
			</clipPath>
			<g class="st2">
				<g>
					<g>
						<g>
							<path class="st3" d="M478.2,67.8c-3.2,0.4-6.4,0.8-9.6,1.3l-0.8,2.4c3.2-0.5,6.3-0.9,9.5-1.3L478.2,67.8 M504.4,65.8
								l-1.1,2.4c3.1-0.1,6.1-0.2,9.1-0.2l1.1-2.4C510.5,65.6,507.5,65.7,504.4,65.8 M458.9,70.7c-3.3,0.6-6.5,1.2-9.8,1.9l-0.7,2.4
								c3.2-0.7,6.5-1.3,9.7-1.9L458.9,70.7 M522.5,65.7l-1.2,2.4c3,0.1,5.9,0.2,8.8,0.4l1.3-2.4C528.5,65.9,525.5,65.8,522.5,65.7
								 M439.3,74.7c-3.3,0.8-6.6,1.6-9.9,2.5l-0.5,2.3c3.3-0.9,6.6-1.7,9.9-2.4L439.3,74.7 M540.1,66.8l-1.3,2.4
								c2.9,0.3,5.7,0.6,8.5,1l1.4-2.4C545.9,67.4,543,67.1,540.1,66.8 M419.3,79.9c-3.4,1-6.7,2-10.1,3.1l-0.3,2.3
								c3.3-1.1,6.6-2.1,10-3L419.3,79.9 M557,69.1l-1.5,2.4c2.8,0.5,5.4,1,8.1,1.6l1.5-2.4C562.5,70.2,559.8,69.6,557,69.1
								 M399.2,86.4c-3.4,1.2-6.8,2.4-10.1,3.7l-0.2,2.2c3.3-1.3,6.7-2.5,10.1-3.6L399.2,86.4 M573.1,72.8l-1.6,2.4
								c2.6,0.7,5.2,1.5,7.7,2.3l1.7-2.4C578.3,74.2,575.8,73.5,573.1,72.8 M378.8,94c-3.4,1.4-6.8,2.8-10.2,4.3l0,2.2
								c3.3-1.5,6.7-2.9,10.1-4.3L378.8,94 M588.3,77.7l-1.8,2.3c2.4,0.9,4.8,1.9,7.2,3l1.8-2.3C593.2,79.7,590.8,78.7,588.3,77.7
								 M358.5,102.9c-3.4,1.6-6.8,3.3-10.2,4.9l0.2,2.1c3.3-1.7,6.7-3.3,10.1-4.9L358.5,102.9 M602.5,84.1l-1.9,2.3
								c2.3,1.2,4.4,2.4,6.6,3.7l2-2.2C607,86.5,604.8,85.3,602.5,84.1 M338.2,113.1c-3.4,1.8-6.8,3.7-10.1,5.6l0.4,2
								c3.3-1.9,6.6-3.7,10-5.6L338.2,113.1 M615.5,91.9l-2,2.2c2,1.4,4,2.9,5.9,4.4l2.1-2.1C619.5,94.8,617.5,93.4,615.5,91.9
								 M318.1,124.7c-3.4,2.1-6.7,4.2-9.9,6.3l0.6,1.8c3.2-2.1,6.5-4.2,9.8-6.2L318.1,124.7 M627,101.3l-2.2,2.1
								c1.8,1.7,3.5,3.4,5.1,5.2l2.2-2C630.5,104.8,628.8,103,627,101.3 M298.3,137.7c-3.3,2.3-6.5,4.6-9.7,7l0.9,1.7
								c3.1-2.4,6.3-4.7,9.5-6.9L298.3,137.7 M636.8,112.3l-2.3,1.9c1.5,2,2.8,4,4.1,6.1l2.3-1.9
								C639.7,116.4,638.3,114.3,636.8,112.3 M279.2,152.2c-3.2,2.6-6.2,5.1-9.2,7.8l1.1,1.4c3-2.6,6-5.1,9.1-7.6L279.2,152.2
								 M644.6,125.1l-2.4,1.8c1.1,2.3,2.1,4.6,3,6.9l2.4-1.6C646.8,129.7,645.8,127.3,644.6,125.1 M261,168c-3,2.8-5.8,5.6-8.6,8.5
								l1.4,1.2c2.7-2.8,5.6-5.6,8.5-8.3L261,168 M650.1,139.6l-2.5,1.5c0.7,2.5,1.2,5.1,1.6,7.8l2.5-1.4
								C651.3,144.8,650.8,142.1,650.1,139.6 M244.2,185.3c-2.7,3-5.3,6-7.8,9.1l1.7,0.8c2.4-3,5-6,7.6-8.9L244.2,185.3
								 M652.7,155.8l-2.5,1.2c0.2,2.8,0.2,5.7,0.1,8.5l2.5-1C652.9,161.6,652.8,158.7,652.7,155.8 M229.2,203.8
								c-2.3,3.2-4.5,6.4-6.6,9.6l2,0.5c2-3.1,4.2-6.3,6.4-9.4L229.2,203.8 M652,173.6l-2.5,0.8c-0.4,3-0.9,6.1-1.6,9.2l2.5-0.6
								C651.1,179.8,651.6,176.7,652,173.6 M216.8,223.1c-1.8,3.3-3.5,6.5-5.1,9.8l2.3,0c1.5-3.2,3.2-6.4,5-9.6L216.8,223.1
								 M647.9,192.6l-2.4,0.4c-0.9,3-2,6-3.1,9.1c-0.1,0.2-0.1,0.3-0.2,0.5l2.4-0.2c0.1-0.2,0.1-0.3,0.2-0.5
								C645.9,198.7,646.9,195.6,647.9,192.6 M207.3,242.8c-0.2,0.5-0.4,1-0.6,1.5c-1.1,2.8-2,5.5-2.9,8.2l2.4-0.4
								c0.8-2.7,1.8-5.4,2.8-8.1c0.2-0.5,0.4-1,0.6-1.5L207.3,242.8 M638,212.2c-1.5,3.2-3.2,6.4-4.9,9.6l2.1,0.2
								c1.8-3.3,3.5-6.6,5.1-9.9L638,212.2 M203.7,261.6l-2.5,0.6c-0.7,3.2-1.3,6.3-1.7,9.4l2.5-0.8
								C202.4,267.8,203,264.7,203.7,261.6 M627.4,231.4c-2,3.2-4.1,6.3-6.4,9.4l1.9,0.6c2.3-3.2,4.5-6.4,6.5-9.6L627.4,231.4
								 M201.2,279.7l-2.5,1c-0.1,3-0.1,5.9,0,8.8l2.5-1.2C201.1,285.5,201.1,282.6,201.2,279.7 M614,250c-2.4,3-4.9,6-7.5,9l1.6,1
								c2.7-3,5.2-6.1,7.7-9.1L614,250 M202,296.5l-2.5,1.4c0.4,2.7,0.9,5.4,1.6,8l2.5-1.5C203,301.8,202.4,299.2,202,296.5
								 M598.4,267.6c-2.7,2.8-5.5,5.6-8.4,8.4l1.3,1.3c2.9-2.8,5.8-5.6,8.6-8.5L598.4,267.6 M205.9,311.7l-2.4,1.6
								c0.9,2.4,1.9,4.8,3,7.1l2.4-1.7C207.7,316.4,206.7,314.1,205.9,311.7 M581.2,284c-2.9,2.6-6,5.2-9.1,7.7l1,1.5
								c3.1-2.6,6.2-5.2,9.2-7.8L581.2,284 M212.3,325.2l-2.3,1.8c1.3,2.1,2.7,4.2,4.1,6.2l2.3-1.9
								C214.9,329.3,213.6,327.3,212.3,325.2 M562.8,299c-3.1,2.4-6.3,4.7-9.5,7l0.8,1.7c3.3-2.3,6.5-4.7,9.6-7.1L562.8,299
								 M221,337l-2.2,2c1.6,1.8,3.3,3.6,5.1,5.3l2.2-2.1C224.2,340.6,222.6,338.8,221,337 M543.6,312.6c-3.2,2.1-6.5,4.2-9.8,6.3
								l0.5,1.9c3.4-2.1,6.7-4.2,9.9-6.4L543.6,312.6 M231.5,347.2l-2.1,2.1c1.9,1.6,3.9,3.1,5.9,4.5l2-2.2
								C235.3,350.2,233.4,348.7,231.5,347.2 M523.9,324.9c-3.3,1.9-6.6,3.8-10,5.6l0.3,2c3.4-1.8,6.8-3.7,10.1-5.7L523.9,324.9
								 M243.5,355.8l-2,2.2c2.1,1.3,4.3,2.6,6.6,3.8l1.9-2.3C247.8,358.3,245.6,357,243.5,355.8 M503.9,335.7
								c-3.3,1.7-6.7,3.3-10.1,4.9l0.1,2.1c3.4-1.6,6.8-3.3,10.2-5L503.9,335.7 M256.9,362.8l-1.8,2.3c2.3,1.1,4.7,2.1,7.2,3
								l1.8-2.3C261.6,364.9,259.2,363.9,256.9,362.8 M483.8,345.3c-3.3,1.5-6.7,2.9-10.1,4.3l-0.1,2.2c3.4-1.4,6.8-2.8,10.2-4.3
								L483.8,345.3 M271.4,368.5l-1.7,2.4c2.5,0.8,5.1,1.6,7.7,2.3l1.6-2.4C276.5,370.1,273.9,369.3,271.4,368.5 M463.6,353.5
								c-3.3,1.3-6.7,2.5-10.1,3.7l-0.3,2.3c3.4-1.2,6.8-2.4,10.1-3.7L463.6,353.5 M286.9,372.8l-1.6,2.4c2.7,0.6,5.4,1.2,8.1,1.7
								l1.5-2.4C292.3,374,289.6,373.4,286.9,372.8 M443.5,360.6c-3.3,1.1-6.6,2.1-10,3.1l-0.4,2.3c3.4-1,6.7-2,10.1-3.1
								L443.5,360.6 M303.3,375.9l-1.4,2.4c2.8,0.4,5.6,0.8,8.5,1.1l1.4-2.4C308.9,376.6,306,376.3,303.3,375.9 M423.6,366.4
								c-3.3,0.9-6.6,1.7-9.9,2.5l-0.6,2.4c3.3-0.8,6.6-1.6,9.9-2.5L423.6,366.4 M320.4,377.6l-1.3,2.4c2.9,0.2,5.9,0.3,8.8,0.4
								l1.2-2.4C326.2,378,323.2,377.8,320.4,377.6 M404,371c-3.2,0.7-6.5,1.3-9.7,1.9l-0.7,2.4c3.3-0.6,6.5-1.2,9.8-1.9L404,371
								 M338.1,378.2l-1.1,2.4c3,0,6.1-0.1,9.1-0.2l1.1-2.4C344.1,378.1,341.1,378.2,338.1,378.2 M384.6,374.5
								c-3.2,0.5-6.4,0.9-9.5,1.3l-0.9,2.4c3.2-0.4,6.4-0.8,9.6-1.3L384.6,374.5 M356.3,377.6l-1,2.4c3.1-0.2,6.2-0.4,9.4-0.7
								l0.9-2.4C362.5,377.1,359.4,377.4,356.3,377.6 M485.7,67l-0.9,2.4c3.1-0.3,6.3-0.6,9.3-0.8l1-2.4
								C492,66.5,488.9,66.7,485.7,67"/>
						</g>
					</g>
				</g>
			</g>
		</g>
	</g>
</g>
<radialGradient id="SVGID_3_" cx="13.7952" cy="-169.8124" r="1.1158" gradientTransform="matrix(12.8757 -48.0529 48.0529 12.8757 8595.9736 2960.8445)" gradientUnits="userSpaceOnUse">
	<stop  offset="0" style="stop-color:#EAF6FF"/>
	<stop  offset="0.14" style="stop-color:#BCD2F5"/>
	<stop  offset="0.32" style="stop-color:#6F6FD0"/>
	<stop  offset="0.58" style="stop-color:#3A2A8C"/>
	<stop  offset="1" style="stop-color:#0A0420"/>
</radialGradient>
<circle class="st4" cx="630.9" cy="102.6" r="32.7"/>
<radialGradient id="SVGID_4_" cx="15.3132" cy="-169.0476" r="0.6883" gradientTransform="matrix(88.0158 0 0 88.0158 -1169.9249 15055.0117)" gradientUnits="userSpaceOnUse">
	<stop  offset="0" style="stop-color:#F2A838;stop-opacity:0.75"/>
	<stop  offset="0.6" style="stop-color:#E07D1C;stop-opacity:0.35"/>
	<stop  offset="1" style="stop-color:#E07D1C;stop-opacity:0"/>
</radialGradient>
<circle class="st5" cx="177.9" cy="176.1" r="60.6"/>
<radialGradient id="SVGID_5_" cx="15.0442" cy="-167.5838" r="0.6883" gradientTransform="matrix(76.5354 0 0 76.5354 -993.9084 13193.3164)" gradientUnits="userSpaceOnUse">
	<stop  offset="0" style="stop-color:#F2A838;stop-opacity:0.75"/>
	<stop  offset="0.6" style="stop-color:#E07D1C;stop-opacity:0.35"/>
	<stop  offset="1" style="stop-color:#E07D1C;stop-opacity:0"/>
</radialGradient>
<circle class="st6" cx="157.5" cy="367.1" r="52.7"/>
<radialGradient id="SVGID_6_" cx="15.8246" cy="-167.3044" r="0.6878" gradientTransform="matrix(65.0551 0 0 65.0551 -693.5309 11001.5029)" gradientUnits="userSpaceOnUse">
	<stop  offset="0" style="stop-color:#F2A838;stop-opacity:0.75"/>
	<stop  offset="0.6" style="stop-color:#E07D1C;stop-opacity:0.35"/>
	<stop  offset="1" style="stop-color:#E07D1C;stop-opacity:0"/>
</radialGradient>
<circle class="st7" cx="335.9" cy="117.5" r="44.7"/>
<radialGradient id="SVGID_7_" cx="15.875" cy="-168.9978" r="0.6879" gradientTransform="matrix(95.6693 0 0 95.6693 -1156.5115 16580.0293)" gradientUnits="userSpaceOnUse">
	<stop  offset="0" style="stop-color:#F2A838;stop-opacity:0.75"/>
	<stop  offset="0.6" style="stop-color:#E07D1C;stop-opacity:0.35"/>
	<stop  offset="1" style="stop-color:#E07D1C;stop-opacity:0"/>
</radialGradient>
<circle class="st8" cx="362.2" cy="412.1" r="65.8"/>
<radialGradient id="SVGID_8_" cx="19.5423" cy="-167.0364" r="0.6881" gradientTransform="matrix(72.7087 0 0 72.7087 -971.9188 12454.6963)" gradientUnits="userSpaceOnUse">
	<stop  offset="0" style="stop-color:#F2A838;stop-opacity:0.75"/>
	<stop  offset="0.6" style="stop-color:#E07D1C;stop-opacity:0.35"/>
	<stop  offset="1" style="stop-color:#E07D1C;stop-opacity:0"/>
</radialGradient>
<circle class="st9" cx="449" cy="309.7" r="50.1"/>
<radialGradient id="SVGID_9_" cx="15.7429" cy="-173.1772" r="0.6883" gradientTransform="matrix(449.6457 0 0 449.6457 -6769.2085 78136.7578)" gradientUnits="userSpaceOnUse">
	<stop  offset="0" style="stop-color:#E89422"/>
	<stop  offset="0.369" style="stop-color:#CF7D18;stop-opacity:0.8"/>
	<stop  offset="0.6801" style="stop-color:#8A5310;stop-opacity:0.4"/>
	<stop  offset="0.9774" style="stop-color:#000000;stop-opacity:0"/>
</radialGradient>
<circle class="st10" cx="309.5" cy="268.4" r="309.5"/>
<g class="st11">
	<g class="st12">
		<line class="st13" x1="309.5" y1="268.4" x2="309.5" y2="90.5"/>
		<path class="st14" d="M292.4,116.9L309.5,88l17.1,28.9"/>
	</g>
	<g transform="rotate(72 310 275)" class="st12">
		<line class="st13" x1="303.6" y1="273.4" x2="303.6" y2="95.6"/>
		<path class="st14" d="M286.4,121.9L303.5,93l17.1,28.9"/>
	</g>
	<g transform="rotate(144 310 275)" class="st12">
		<line class="st13" x1="306.5" y1="280.6" x2="306.5" y2="102.7"/>
		<path class="st14" d="M289.4,129.2l17.1-28.9l17.1,28.9"/>
	</g>
	<g transform="rotate(216 310 275)" class="st12">
		<line class="st13" x1="314.3" y1="280.1" x2="314.3" y2="102.2"/>
		<path class="st14" d="M297.2,128.5l17.1-28.9l17.1,28.9"/>
	</g>
	<g transform="rotate(288 310 275)" class="st12">
		<line class="st13" x1="316.1" y1="272.5" x2="316.1" y2="94.8"/>
		<path class="st14" d="M299.1,121.1l17.1-28.9l17.1,28.9"/>
	</g>
</g>
<radialGradient id="SVGID_10_" cx="15.7192" cy="-168.3976" r="0.7574" fx="15.7104" fy="-168.5145" gradientTransform="matrix(80.3622 0 0 82.3923 -953.7222 14134.1533)" gradientUnits="userSpaceOnUse">
	<stop  offset="0.1373" style="stop-color:#FFF4D6"/>
	<stop  offset="0.5343" style="stop-color:#FFCF5A"/>
	<stop  offset="0.75" style="stop-color:#F5A623"/>
	<stop  offset="1" style="stop-color:#E8861A"/>
</radialGradient>
<circle class="st15" cx="309.5" cy="268.4" r="55.3"/>
</svg>
